<?xml version="1.0" encoding="iso-8859-1"?>
<!-- Generator: Adobe Illustrator 19.0.0, SVG Export Plug-In . SVG Version: 6.00 Build 0)  -->
<svg version="1.1" id="Capa_1" xmlns="http://www.w3.org/2000/svg" xmlns:xlink="http://www.w3.org/1999/xlink" x="0px" y="0px"
	 viewBox="0 0 512.001 512.001" style="enable-background:new 0 0 512.001 512.001;" xml:space="preserve">
<g>
	<g>
		<path d="M120.975,85.643H79.297c-2.731,0-5.581,1.424-5.581,4.156v78.486c0,2.85,3.206,4.156,6.293,4.156
			c3.206,0,6.293-1.306,6.293-4.156V133.97h18.405c2.85,0,4.037-2.612,4.037-4.868c0-2.731-1.425-5.106-4.037-5.106H86.302V96.805
			h34.673c2.612,0,4.037-2.612,4.037-5.7C125.012,88.493,123.825,85.643,120.975,85.643z"/>
	</g>
</g>
<g>
	<g>
		<path d="M150.066,85.644c-3.087,0-6.293,1.187-6.293,4.037v78.605c0,2.732,3.206,4.156,6.293,4.156
			c3.206,0,6.293-1.424,6.293-4.156V89.681C156.359,86.831,153.272,85.644,150.066,85.644z"/>
	</g>
</g>
<g>
	<g>
		<path d="M230.927,85.644c-3.087,0-6.293,1.187-6.293,4.037v54.502l-26.36-51.415c-2.85-5.462-4.987-7.124-9.499-7.124
			c-3.206,0-6.293,1.187-6.293,4.156v78.486c0,2.732,3.206,4.156,6.293,4.156c3.205,0,6.292-1.424,6.292-4.156v-54.501
			l28.379,54.027c1.663,3.087,4.393,4.63,7.481,4.63c3.206,0,6.293-1.424,6.293-4.156V89.681
			C237.22,86.831,234.133,85.644,230.927,85.644z"/>
	</g>
</g>
<g>
	<g>
		<path d="M269.634,85.644c-3.087,0-6.293,1.187-6.293,4.037v78.605c0,2.732,3.206,4.156,6.293,4.156
			c3.206,0,6.293-1.424,6.293-4.156V89.681C275.927,86.831,272.84,85.644,269.634,85.644z"/>
	</g>
</g>
<g>
	<g>
		<path d="M312.379,106.897c0-7.48,6.174-10.805,14.843-10.805c10.093,0,13.18,4.512,16.386,4.512c3.562,0,5.225-4.393,5.225-6.768
			c0-6.531-13.893-8.55-21.611-8.55c-12.705,0-27.429,5.225-27.429,22.798c0,28.498,38.59,20.304,38.59,41.322
			c0,8.55-6.412,12.587-14.961,12.587c-13.18,0-16.03-9.38-20.305-9.38c-2.968,0-5.462,3.918-5.462,6.768
			c0,5.937,10.805,14.011,26.242,14.011c15.673,0,27.072-8.313,27.072-25.292C350.969,116.515,312.379,124.471,312.379,106.897z"/>
	</g>
</g>
<g>
	<g>
		<path d="M421.738,85.644c-3.087,0-6.293,1.187-6.293,4.037v32.772h-29.566V89.681c0-2.85-3.087-4.037-6.293-4.037
			c-3.087,0-6.293,1.187-6.293,4.037v78.605c0,2.732,3.206,4.156,6.293,4.156c3.206,0,6.293-1.424,6.293-4.156v-35.859h29.566
			v35.859c0,2.732,3.206,4.156,6.293,4.156c3.206,0,6.293-1.424,6.293-4.156V89.681C428.031,86.831,424.944,85.644,421.738,85.644z"
			/>
	</g>
</g>
<g>
	<g>
		<path d="M395.703,194.718l-372.28-0.001V63.122h58.21c4.139,0,7.493-3.354,7.493-7.493c0-4.139-3.354-7.493-7.493-7.493h-63.04
			c-5.6,0-10.157,4.556-10.157,10.157v362.462C3.657,421.56,0,425.717,0,430.722v23.023c0,5.58,4.54,10.118,10.119,10.118h39.007
			c5.58,0,10.119-4.539,10.119-10.118v-23.023c0-5.006-3.657-9.162-8.437-9.967V209.704h344.895c4.139,0,7.493-3.354,7.493-7.493
			C403.196,198.073,399.842,194.718,395.703,194.718z M23.423,209.704h12.399v210.9H23.423V209.704z M44.259,448.878H14.986V435.59
			h29.273C44.259,435.59,44.259,448.878,44.259,448.878z"/>
	</g>
</g>
<g>
	<g>
		<path d="M503.563,420.756V203.885c0.123-0.539,0.194-1.097,0.194-1.673V58.293c0-5.601-4.556-10.157-10.157-10.157H116.498
			c-4.139,0-7.493,3.354-7.493,7.493c0,4.139,3.354,7.493,7.493,7.493h372.273v131.596l-58.203,0.001
			c-4.139,0-7.493,3.354-7.493,7.493s3.354,7.493,7.493,7.493h30.625v211.051c-4.78,0.805-8.437,4.961-8.437,9.967v23.023
			c0,5.58,4.54,10.118,10.119,10.118h39.007c5.58,0,10.119-4.539,10.119-10.118v-23.023C512,425.717,508.343,421.56,503.563,420.756
			z M476.178,209.704h12.399v210.9h-12.399V209.704z M497.014,448.878h-29.273V435.59h29.273V448.878z"/>
	</g>
</g>
<g>
</g>
<g>
</g>
<g>
</g>
<g>
</g>
<g>
</g>
<g>
</g>
<g>
</g>
<g>
</g>
<g>
</g>
<g>
</g>
<g>
</g>
<g>
</g>
<g>
</g>
<g>
</g>
<g>
</g>
</svg>
